<?xml version="1.0" standalone="no"?><!DOCTYPE svg PUBLIC "-//W3C//DTD SVG 1.1//EN" "http://www.w3.org/Graphics/SVG/1.1/DTD/svg11.dtd"><svg t="1579013137950" class="icon" viewBox="0 0 1024 1024" version="1.1" xmlns="http://www.w3.org/2000/svg" p-id="16727" xmlns:xlink="http://www.w3.org/1999/xlink" width="200" height="200"><defs><style type="text/css"></style></defs><path d="M956.16 290.56a42.666667 42.666667 0 0 0-46.08 8.106667l-177.066667 160.426666-186.026666-270.08a42.666667 42.666667 0 0 0-69.973334 0l-186.026666 269.653334L113.92 298.666667A42.666667 42.666667 0 0 0 42.666667 329.813333V896A128 128 0 0 0 170.666667 1024h682.666666a128 128 0 0 0 128-128V329.813333a42.666667 42.666667 0 0 0-25.173333-39.253333zM448 64a64 64 0 1 0 128 0 64 64 0 0 0-128 0zM0 192a64 64 0 1 0 128 0 64 64 0 0 0-128 0z m896 0a64 64 0 1 0 128 0 64 64 0 0 0-128 0z" p-id="16728" fill="#f4ea2a"></path></svg>