<?xml version="1.0" standalone="no"?><!DOCTYPE svg PUBLIC "-//W3C//DTD SVG 1.1//EN" "http://www.w3.org/Graphics/SVG/1.1/DTD/svg11.dtd"><svg t="1579012881607" class="icon" viewBox="0 0 1024 1024" version="1.1" xmlns="http://www.w3.org/2000/svg" p-id="11185" xmlns:xlink="http://www.w3.org/1999/xlink" width="200" height="200"><defs><style type="text/css"></style></defs><path d="M878.9 796.6c0 89.9-72.8 162.7-162.7 162.7H309.4c-89.9 0-162.7-72.8-162.7-162.7V227.1c0-89.9 72.8-162.7 162.7-162.7h324.2c0.2 0 0.3 0.1 0.4 0.1 0.2 0 0.5-0.1 0.7-0.1v0.2c10.5 0 21.1 3.5 29.1 11.6L867 279.4c8 8 11.6 18.6 11.6 29.1h0.2c0 0.2-0.1 0.5-0.1 0.7 0 0.2 0.1 0.3 0.1 0.5v486.9zM309.4 145.7c-44.9 0-81.4 36.4-81.4 81.4v569.5c0 44.9 36.4 81.4 81.4 81.4h406.8c44.9 0 81.4-36.4 81.4-81.4V389.8H634.8c-44.9 0-81.4-36.4-81.4-81.4V145.7h-244z m325.4 17.4v145.3h145.3L634.8 163.1z m81.4 552.1c0 22.5-18.2 40.7-40.7 40.7H350.1c-22.5 0-40.7-18.2-40.7-40.7 0-22.5 18.2-40.7 40.7-40.7h325.4c22.5 0 40.7 18.3 40.7 40.7z m-244.1-122h-122c-22.5 0-40.7-18.2-40.7-40.7 0-22.5 18.2-40.7 40.7-40.7h122c22.5 0 40.7 18.2 40.7 40.7 0 22.5-18.2 40.7-40.7 40.7z" p-id="11186"></path></svg>